<svg xmlns="http://www.w3.org/2000/svg" version="1.1" xmlns:xlink="http://www.w3.org/1999/xlink" xmlns:svgjs="http://svgjs.dev/svgjs" width="100%" height="100%" viewBox="0 0 1000 600"><rect width="1000" height="600" x="0" y="0" fill="#533549"/><g><circle r="166.66666666666666" cx="331.6236216227213" cy="353.84584663325177" fill="#f6b042" transform="matrix(0.7577735616208412,0,0,0.7577735616208412,0,31.86499152638845)"/><path d="M247.73065283633568 427.367205096075L233.08799299406274 427.367205096075Q230.3566132478884 427.367205096075 229.26816868738285 426.0733936373608Q228.20026081669812 424.77958217864665 228.4261644047276 422.47947291871037L228.4261644047276 422.47947291871037L243.06882424700052 284.0827202159371Q243.35633790449256 281.49509729850877 244.3626357057147 280.20128583979465Q245.34839681711594 278.9074743810804 248.5315837393492 278.9074743810804L248.5315837393492 278.9074743810804L261.4080882570282 278.9074743810804Q277.3034861783736 278.9074743810804 289.42013317268083 284.02111014647454Q301.536780166988 289.11420922204775 309.4844791276607 298.45840309053887Q317.4321780883334 307.8231336488509 320.73858514949177 320.8023216156342Q324.02445552082935 333.7609728925966 322.2377635064145 349.51261398519597L322.2377635064145 349.51261398519597Q319.50638376024017 373.6226878348852 310.4497035492411 391.0583374927951Q301.39302333824196 408.5145238405258 285.80567576420947 417.9408644683004Q270.1977915003562 427.367205096075 247.73065283633568 427.367205096075L247.73065283633568 427.367205096075ZM252.00228431907448 287.0400035501409L237.95518848160648 419.0087723389851L246.9091852435013 419.0087723389851Q267.15836140686895 419.0087723389851 281.00009034612833 410.69141296153697Q294.8212825955669 402.37405358408876 302.76898155623957 386.6634858711311Q310.7166805169123 370.9529181581735 313.30430343434057 348.8554399109285L313.30430343434057 348.8554399109285Q314.78294510144246 335.609274976474 312.01049197562645 324.334632264822Q309.2380388498104 313.05998955317006 302.62522472749356 304.72209348590104Q295.9918739153559 296.36366072881117 285.99050597259725 291.70183213947604Q275.9686013400177 287.0400035501409 262.9483399935927 287.0400035501409L262.9483399935927 287.0400035501409L252.00228431907448 287.0400035501409ZM341.62439869730605 398.533692587588L341.62439869730605 398.533692587588Q341.62439869730605 410.13692233637374 343.8012878183172 414.8808976849923Q345.9781769393283 419.60433634379 351.2355695334684 419.60433634379L351.2355695334684 419.60433634379Q356.3286686090416 419.60433634379 364.1326107409683 410.95838992920807Q371.93655287289494 402.3124435146262 380.27444894016395 383.97317950459853L380.27444894016395 383.97317950459853L383.17012220490517 356.679918732676L366.9050638667843 356.679918732676Q361.7298180319277 356.679918732676 357.62248006775576 359.71934882616324Q353.5151421035838 362.75877891965047 350.5167853897383 367.6670477868359Q347.5389653657137 372.5753166540214 345.5263697632694 378.2845164242204Q343.534310850646 383.97317950459853 342.5690864290656 389.3332555478429Q341.62439869730605 394.69333159108726 341.62439869730605 398.533692587588ZM392.7812930410675 419.0087723389851L393.7465174626479 427.367205096075Q386.7229695439139 427.367205096075 383.58085600132233 424.26616493312514Q380.43874245873087 421.1651247701754 379.535128106613 415.4559249999764Q378.65205044431605 409.76726191959824 378.36453678682403 402.00439316731325L378.36453678682403 402.00439316731325Q373.92861178551834 409.5413583315688 369.30785657582487 415.62021851854325Q364.6871013661315 421.67854201569685 359.7582958091252 425.25192604452644Q354.85002694193975 428.8458467631769 349.44887751905355 428.8458467631769L349.44887751905355 428.8458467631769Q346.3478373561038 428.8458467631769 343.3084072626166 427.4082784757167Q340.28951385895016 425.97071018825653 337.8456477702679 422.6437664372773Q335.4017816815856 419.316822686298 333.9642133941254 413.6486962957407Q332.5266451066652 408.0011065950043 332.5266451066652 399.6426738379144L332.5266451066652 399.6426738379144Q332.5266451066652 393.5843503407608 333.8615299450211 386.4786556627434Q335.1758780935561 379.3934976745468 337.8456477702679 372.4726332049171Q340.51541744697965 365.5517687352874 344.4995352722264 359.86310565490925Q348.48365309747317 354.17444257453116 353.8848025203593 350.7653520642684Q359.2859519432454 347.3767982438266 366.08359627395 347.3767982438266L366.08359627395 347.3767982438266L384.13534662648556 347.3767982438266L390.70708736916066 284.0827202159371Q390.99460102665273 281.49509729850877 392.411632624292 280.1602124601529Q393.80812753211046 278.8458643116179 395.6564296159878 278.8458643116179L395.6564296159878 278.8458643116179Q397.7306352878947 278.8458643116179 398.98337336696716 279.9137721823026Q400.23611144603956 280.98168005298726 399.94859778854754 283.79520655844505L399.94859778854754 283.79520655844505L387.9757076229863 397.0550509204861Q387.66765727567343 399.72482059719783 387.56497382656914 403.42142476495263Q387.46229037746485 407.1180289327073 387.8319507942403 410.69141296153697Q388.2016112110158 414.28533368018736 389.37220253080477 416.6470530095862Q390.56333054041465 419.0087723389851 392.7812930410675 419.0087723389851L392.7812930410675 419.0087723389851ZM392.7812930410675 419.0087723389851L392.7812930410675 419.0087723389851Q395.28676919921236 419.0087723389851 397.1761446627314 417.38637384313716Q399.0655201262506 415.76397534728926 402.0228034604543 410.5065827531492L402.0228034604543 410.5065827531492L431.08221955697076 359.20593158064173Q432.1090540480138 357.41923956622696 432.4787144647892 357.41923956622696L432.4787144647892 357.41923956622696Q433.2180352983402 357.35762949676433 434.1011129606371 359.2675416501043Q434.98419062293414 361.19799049326514 434.8404337941881 364.52493424424443L434.8404337941881 364.52493424424443Q434.7788237247255 367.25631399041873 434.28594316902485 368.3652952407451Q433.81359930314505 369.4742764910716 433.4439388863696 370.2135973246225L433.4439388863696 370.2135973246225L409.41601179596387 413.320109258607Q405.0416968641207 421.1651247701754 401.57099628439545 424.26616493312514Q398.10029570467015 427.367205096075 393.7465174626479 427.367205096075L393.7465174626479 427.367205096075Q391.7339218602036 427.367205096075 390.78923412844415 426.0733936373608Q389.8240097068637 424.77958217864665 389.7418629475803 423.15718368279875L389.7418629475803 423.15718368279875Q389.6802528781177 421.5963952564134 390.4811837811312 420.30258379769924Q391.3026513739656 419.0087723389851 392.7812930410675 419.0087723389851Z " fill="#533549" transform="matrix(0.7577735616208412,0,0,0.7577735616208412,0,31.86499152638845)"/><path d="M600.9755165724753 427.3665975356815L586.3268402685919 427.3665975356815Q583.5943382371522 427.3665975356815 582.5054464501875 426.0722544681574Q581.4370997912788 424.7779114006334 581.6630961998942 422.47685705836835L581.6630961998942 422.47685705836835L596.3117725037774 284.0232390894068Q596.5994042965606 281.43455295435865 597.6061155713014 280.1402098868346Q598.5922817179865 278.8458668193106 601.7767765666567 278.8458668193106L601.7767765666567 278.8458668193106L614.6585718577295 278.8458668193106Q630.560500973025 278.8458668193106 642.682126526028 283.961603705239Q654.803752079031 289.0567954631114 662.7547166366787 298.4048287285629Q670.7056811943264 307.77340712207035 674.0134468113324 320.7579280534227Q677.3006673002824 333.72190385671917 675.5132411594159 349.4800170756231L675.5132411594159 349.4800170756231Q672.7807391279762 373.59999741329347 663.7203376553077 391.04281113278427Q654.6599361826394 408.506169980331 639.066183988183 417.93638375800623Q623.4518866656706 427.3665975356815 600.9755165724753 427.3665975356815L600.9755165724753 427.3665975356815ZM605.2489032081102 286.9817375294617L591.196035617849 419.00473041691504L600.1537114502378 419.00473041691504Q620.411207713392 419.00473041691504 634.2586240230937 410.68395355426037Q648.0854952047396 402.36317669160576 656.0364597623873 386.64615372881366Q663.987424320035 370.9291307660216 666.5761104550832 348.8225729778331L666.5761104550832 348.8225729778331Q668.0553596751106 335.5709653817535 665.2817673875591 324.2916900790439Q662.5081751000075 313.0124147763343 655.8926438659958 304.6710927856238Q649.256567503928 296.3092256668573 639.2510901406864 291.6454815981595Q629.2250676493891 286.9817375294617 616.1994564619248 286.9817375294617L616.1994564619248 286.9817375294617L605.2489032081102 286.9817375294617ZM702.7355358335328 428.8458467557089L702.7355358335328 428.8458467557089Q699.6332214970862 428.8458467557089 696.5925425448075 427.4076877917933Q693.5724087205847 425.9695288278777 691.1275384819282 422.6412180828159Q688.6826682432717 419.31290733775404 687.2445092793561 413.6424519943153Q685.8063503154405 407.99254177893255 685.8063503154405 399.6306746601661L685.8063503154405 399.6306746601661Q685.8063503154405 393.5698618836646 687.1417836390764 386.46124757631026Q688.4566718346564 379.3731783970119 691.1275384819282 372.449470242161Q693.7984051292001 365.5257620873101 697.7841599720518 359.83476161581547Q701.7699148149037 354.1437611443209 707.0705578533355 350.73326988703525Q712.3506557637114 347.3433237578056 719.0072772538351 347.3433237578056L719.0072772538351 347.3433237578056L735.9570078999834 347.3433237578056Q738.9771417242061 347.3433237578056 741.319286322583 347.71313606281245Q743.640885792904 348.0829483678193 744.8941386043161 349.4800170756231Q746.1473914157283 350.89763091148274 745.7775791107215 353.91776473570553L745.7775791107215 353.91776473570553L741.2781960664712 397.041988525118Q740.682387352849 402.9589854052279 740.7234776089608 407.9514515228207Q740.7645678650728 412.9439176404135 742.0178206764849 415.9845965926922Q743.2710734878971 419.00473041691504 746.1473914157283 419.00473041691504L746.1473914157283 419.00473041691504Q747.8526370443711 419.00473041691504 748.7360775507764 420.4223442527746Q749.6400631852376 421.8194129605784 749.7016985694055 423.4424780769975L749.7016985694055 423.4424780769975Q749.8455144657971 424.9217272970249 749.1880703680071 426.15443498038115Q748.5306262702171 427.3665975356815 747.1130124343574 427.3665975356815L747.1130124343574 427.3665975356815Q738.9771417242061 427.3665975356815 735.3611991863612 421.67559706418683Q731.7247115204603 415.9845965926922 731.7247115204603 402.58917310022105L731.7247115204603 402.58917310022105Q723.4450249139176 415.0806109582309 717.1171254726889 421.9632288569699Q710.8097711595161 428.8458467557089 702.7355358335328 428.8458467557089ZM704.5229619743993 419.51835861831347L704.5229619743993 419.51835861831347Q709.6181537322718 419.51835861831347 717.3431218813042 411.17703662760283Q725.0680900303366 402.8151695088364 733.6559535577185 384.0163773376537L733.6559535577185 384.0163773376537L736.4706361013818 356.6502667671452L719.7469018638488 356.6502667671452Q714.7133454901442 356.6502667671452 710.7275906472923 359.64985546331206Q706.7418358044406 362.6494441594789 703.7422471082737 367.49809438068013Q700.7426584121068 372.3467446018813 698.7908712467928 377.9555645611522Q696.8185389534228 383.58492964847903 695.8529179347938 389.00884345524645Q694.9078420442206 394.4533023900699 694.9078420442206 398.52123774514547L694.9078420442206 398.52123774514547Q694.9078420442206 410.12923509675005 697.1267158742619 414.8340694215597Q699.3455897043032 419.51835861831347 704.5229619743993 419.51835861831347ZM746.1473914157283 419.00473041691504L746.1473914157283 419.00473041691504Q748.6744421666086 419.00473041691504 750.5645939477548 417.3816653004959Q752.4342006008451 415.7586001840769 755.3926990409001 410.4990474017569L755.3926990409001 410.4990474017569L784.4640552400515 359.1773175180255Q785.5118567709043 357.38989137715896 785.8816690759111 357.38989137715896L785.8816690759111 357.38989137715896Q786.6212936859248 357.3282559929911 787.5047341923301 359.2389529021933Q788.3881746987355 361.1701949394514 788.2443588023439 364.49850568451325L788.2443588023439 364.49850568451325Q788.1621782901201 367.23100771595296 787.6896403448336 368.34044463097354Q787.1965572714911 369.4498815459942 786.8267449664843 370.1895061560079L786.8267449664843 370.1895061560079L762.7889451410375 413.31372994542033Q758.4333779931789 421.1619688627884 754.9612513517254 424.26428319923497Q751.489124710272 427.3665975356815 747.1130124343574 427.3665975356815L747.1130124343574 427.3665975356815Q745.1201350129314 427.3665975356815 744.1545139943024 426.0722544681574Q743.1888929756733 424.7779114006334 743.1272575915056 423.15484628421433L743.1272575915056 423.15484628421433Q743.0450770792818 421.5934165519631 743.8668822015193 420.299073484439Q744.6681421957009 419.00473041691504 746.1473914157283 419.00473041691504ZM881.7246914568586 419.00473041691504L882.6903124754879 427.3665975356815Q877.0609473881609 427.3665975356815 873.8559074114347 424.55191499201806Q870.6303223066526 421.73723244835463 869.1921633427369 417.01185299548905Q867.7540043788213 412.28647354262347 867.6101884824297 406.36947666251353Q867.4458274579822 400.4524797824036 868.1238166838282 394.22730598145455L868.1238166838282 394.22730598145455L870.1988746174779 374.0314451024682Q870.4043258980373 371.6071199918676 870.2194197455337 368.3815348870854Q870.0345135930304 365.15594978230325 869.1921633427369 362.09472570196857Q868.3498130924436 359.03350162163395 866.7062028479686 356.99953394409613Q865.0831377315494 354.96556626655837 862.4944515965014 354.96556626655837L862.4944515965014 354.96556626655837Q855.7761947222098 354.96556626655837 849.4072050248693 363.8616067147792Q843.0382153275287 372.778192291056 834.3887164159792 390.89899523639275L834.3887164159792 390.89899523639275L830.834409262302 421.3674201433478Q830.5467774695189 423.586293973389 829.8482431156169 425.47644575453523Q829.1497087617151 427.3665975356815 825.8213980166532 427.3665975356815L825.8213980166532 427.3665975356815Q822.7807190643746 427.3665975356815 822.1849103507524 425.7846226753743Q821.5891016371302 424.1821026870112 821.8972785579692 421.67559706418683L821.8972785579692 421.67559706418683L827.0746508280654 374.0314451024682Q827.3006472366808 371.6071199918676 827.1362862122332 368.3815348870854Q826.9924703158417 365.15594978230325 826.1912103216602 362.09472570196857Q825.3694051994227 359.03350162163395 823.7874303391154 356.99953394409613Q822.1849103507524 354.96556626655837 819.5962242157043 354.96556626655837L819.5962242157043 354.96556626655837Q812.6519709327974 354.96556626655837 806.3240714915687 363.9848774831148Q799.9961720503401 373.0041886996713 791.2028572423989 391.4126234377912L791.2028572423989 391.4126234377912L787.9361818815048 421.3674201433478Q787.7307306009454 423.586293973389 787.0527413750996 425.47644575453523Q786.3952972773095 427.3665975356815 783.1286219164156 427.3665975356815L783.1286219164156 427.3665975356815Q780.1084880921927 427.3665975356815 779.4099537382908 425.7846226753743Q778.690874256333 424.1821026870112 778.9990511771721 421.67559706418683L778.9990511771721 421.67559706418683L786.3131167650859 352.5206960279018Q786.6212936859248 349.7060134842384 787.9156367534489 348.51439605699403Q789.209979820973 347.3433237578056 791.4288536510142 347.3433237578056L791.4288536510142 347.3433237578056Q793.8531787616148 347.3433237578056 794.777709524132 348.41167041671434Q795.7022402866492 349.4800170756231 795.414608493866 352.21251910706275L795.414608493866 352.21251910706275L793.5655469688317 370.0456902596163Q800.5919807639623 357.9240647066133 806.7966094368553 351.8837970581678Q813.0217832378044 345.8640745377781 820.4180293379418 345.8640745377781L820.4180293379418 345.8640745377781Q827.875910822247 345.8640745377781 832.0260266895463 352.6234216681815Q836.1761425568457 359.4033139266408 836.5459548618526 370.0456902596163L836.5459548618526 370.0456902596163Q843.3463922483678 358.29387701162017 849.6332014334846 352.0687032106712Q855.9200106186015 345.8640745377781 863.3162567187389 345.8640745377781L863.3162567187389 345.8640745377781Q869.520885391632 345.8640745377781 873.3011889539243 350.158006301469Q877.0609473881609 354.43139293710396 878.5196514801326 360.8825631466683Q879.9578104440482 367.31318822817667 879.2798212182022 373.74381330968504L879.2798212182022 373.74381330968504L876.9171314917694 396.95980801289426Q876.403503290371 401.93172900243104 876.403503290371 407.02692076030354Q876.403503290371 412.122112518176 877.5951207176154 415.57369403157344Q878.7661930168038 419.00473041691504 881.7246914568586 419.00473041691504L881.7246914568586 419.00473041691504ZM881.7246914568586 419.00473041691504L881.7246914568586 419.00473041691504Q884.251742207739 419.00473041691504 886.1213488608294 417.3816653004959Q888.0115006419755 415.7586001840769 890.9699990820304 410.4990474017569L890.9699990820304 410.4990474017569L920.0413552811818 359.1773175180255Q921.0686116839787 357.38989137715896 921.4384239889855 357.38989137715896L921.4384239889855 357.38989137715896Q922.1780485989993 357.3282559929911 923.0820342334606 359.2389529021933Q923.9654747398658 361.1701949394514 923.8216588434743 364.49850568451325L923.8216588434743 364.49850568451325Q923.7394783312506 367.23100771595296 923.2669403859641 368.34044463097354Q922.7738573126215 369.4498815459942 922.4040450076146 370.1895061560079L922.4040450076146 370.1895061560079L898.366245182168 413.31372994542033Q894.0106780343092 421.1619688627884 890.5385513928559 424.26428319923497Q887.0458796233465 427.3665975356815 882.6903124754879 427.3665975356815L882.6903124754879 427.3665975356815Q880.6974350540618 427.3665975356815 879.7318140354328 426.0722544681574Q878.7661930168038 424.7779114006334 878.7045576326359 423.15484628421433L878.7045576326359 423.15484628421433Q878.6223771204122 421.5934165519631 879.4441822426497 420.299073484439Q880.2454422368312 419.00473041691504 881.7246914568586 419.00473041691504ZM933.4984141578208 278.8458668193106L933.4984141578208 278.8458668193106Q935.6556526036941 278.8458668193106 937.1965372078895 280.1402098868346Q938.7579669401407 281.43455295435865 938.3881546351338 284.0232390894068L938.3881546351338 284.0232390894068L922.260229111223 397.041988525118Q921.5206045012093 402.30154130743796 921.6644203976009 407.3556428091985Q921.8082362939924 412.43028943901504 923.0409439773487 415.717509927965Q924.253106532649 419.00473041691504 926.6979767713055 419.00473041691504L926.6979767713055 419.00473041691504L927.6635977899346 427.3665975356815Q920.637163994804 427.3665975356815 917.041766585015 423.1137560281025Q913.4669143032819 418.8609145205234 912.7272896932682 411.3619427801063Q911.9876650832543 403.84242591163326 913.3025532788344 394.22730598145455L913.3025532788344 394.22730598145455L929.2044823941299 282.68780576577086Q929.5126593149689 280.63329296017713 930.6837316141573 279.72930732571587Q931.8753490414017 278.8458668193106 933.4984141578208 278.8458668193106ZM926.6979767713055 419.00473041691504L926.6979767713055 419.00473041691504Q929.2044823941299 419.00473041691504 931.094634175276 417.3816653004959Q932.9847859564223 415.7586001840769 935.9432843964773 410.4990474017569L935.9432843964773 410.4990474017569L965.0146405956286 359.1773175180255Q966.0418969984255 357.38989137715896 966.4117093034324 357.38989137715896L966.4117093034324 357.38989137715896Q967.151333913446 357.3282559929911 968.0347744198514 359.2389529021933Q968.9387600543126 361.1701949394514 968.7743990298651 364.49850568451325L968.7743990298651 364.49850568451325Q968.7127636456974 367.23100771595296 968.219680572355 368.34044463097354Q967.7471426270682 369.4498815459942 967.3773303220614 370.1895061560079L967.3773303220614 370.1895061560079L943.3395304966148 413.31372994542033Q938.983963348756 421.1619688627884 935.4912915792466 424.26428319923497Q932.0191649377933 427.3665975356815 927.6635977899346 427.3665975356815L927.6635977899346 427.3665975356815Q925.6707203685087 427.3665975356815 924.7050993498797 426.0722544681574Q923.7394783312506 424.7779114006334 923.6572978190268 423.15484628421433L923.6572978190268 423.15484628421433Q923.5956624348589 421.5934165519631 924.3969224290406 420.299073484439Q925.218727551278 419.00473041691504 926.6979767713055 419.00473041691504ZM945.1885920216491 355.4791944679568L907.9197297281787 355.4791944679568Q904.7968702636763 355.4791944679568 903.6257979644879 354.2464867846005Q902.4341805372435 353.03432422930024 902.4341805372435 351.1852627042659L902.4341805372435 351.1852627042659Q902.4341805372435 349.4183816914553 903.2970759155928 348.37058016060246Q904.1394261658863 347.3433237578056 907.0979246059413 347.3433237578056L907.0979246059413 347.3433237578056L944.3667868994116 347.3433237578056Q947.4074658516904 347.3433237578056 948.4347222544873 348.41167041671434Q949.48252378534 349.4800170756231 949.48252378534 351.1852627042659L949.48252378534 351.1852627042659Q949.48252378534 353.2603206379155 948.7428991753263 354.36975755293616Q948.0032745653125 355.4791944679568 945.1885920216491 355.4791944679568L945.1885920216491 355.4791944679568ZM978.2457030636523 419.51835861831347L978.2457030636523 419.51835861831347Q979.950948692295 419.51835861831347 980.7932989425885 421.03869809445274Q981.6561943209379 422.5590375705921 981.5740138087142 424.3259185834027L981.5740138087142 424.3259185834027Q981.5123784245463 426.03116421204555 980.5056671498053 427.44877804790525Q979.4989558750644 428.8458467557089 977.5060784536386 428.8458467557089L977.5060784536386 428.8458467557089Q972.102709774927 428.8458467557089 967.2335144256699 426.4009765170524Q962.3437739483568 423.9561062783959 959.3852755083018 418.30619606301315Q956.4267770682468 412.65628584763033 956.7965893732537 403.0411659174517L956.7965893732537 403.0411659174517Q957.1664016782606 392.9740531700424 959.2825498680221 383.0918465751365Q961.3781529297278 373.2301851082866 965.5282687970271 365.13540465424734Q969.6783846643264 357.0200790721521 976.1090097458348 352.1919739790068Q982.5396348273432 347.3433237578056 991.4973106597317 347.3433237578056L991.4973106597317 347.3433237578056Q997.1883111312264 347.3433237578056 1000.8453439251833 349.1102047706162Q1004.5023767191401 350.89763091148274 1006.1254418355592 354.2259416565446Q1007.7690520800342 357.55425240160645 1007.2348787505798 362.13581595808046L1007.2348787505798 362.13581595808046Q1006.9472469577968 365.5257620873101 1003.1463982674484 371.5660297357557Q999.325004449044 377.5857522561453 990.6755055374942 385.9476193749118L990.6755055374942 385.9476193749118Q984.6763281451606 391.72080035863024 978.1018871672607 397.96651928763515Q971.5274461893607 404.2122382166401 964.9324600834049 409.8416033039669L964.9324600834049 409.8416033039669L964.3366513697827 399.7744905565576Q969.8838359448857 395.04911110369204 975.2461143674853 389.9128290897077Q980.6083927900851 384.75600194766747 985.3543173710066 380.0306224948019L985.3543173710066 380.0306224948019Q992.5245670625286 372.92200818744755 995.2570690939683 368.4842605273651Q997.989571125408 364.0465128672826 998.1539321498556 362.05363544585674L998.1539321498556 362.05363544585674Q998.2977480462471 361.0880144272277 998.0306613815198 359.7320359755358Q997.7841198448486 358.35551239578797 996.325415752877 357.2871657368793Q994.8872567889614 356.2188190779705 991.2713142511166 356.2188190779705L991.2713142511166 356.2188190779705Q985.7241296760135 356.2188190779705 981.5329235526021 359.32113341441703Q977.3622625572469 362.4234477508636 974.4448543733039 367.49809438068013Q971.5274461893607 372.5521958824407 969.6783846643264 378.6540989150541Q967.829323139292 384.75600194766747 966.9253375048308 390.79626959611306Q966.0418969984255 396.8159921165027 965.898081102034 401.76736797798355L965.898081102034 401.76736797798355Q965.7542652056424 410.12923509675005 968.6305831334736 414.8340694215597Q971.5274461893607 419.51835861831347 978.2457030636523 419.51835861831347ZM978.2457030636523 419.51835861831347L978.2457030636523 419.51835861831347Q983.1354435409653 419.51835861831347 988.82644401246 416.9296724832653Q994.5174444839546 414.3409863482172 1000.619347516568 408.42398946810727Q1006.7212505491814 402.50699258799733 1012.6382474292914 392.52206035281176L1012.6382474292914 392.52206035281176L1037.7854841697585 350.2196416856368Q1038.1552964747655 349.5621975878468 1038.5251087797724 349.5621975878468L1038.5251087797724 349.5621975878468Q1038.977101597003 349.5621975878468 1039.1209174933945 350.9181760395387Q1039.2647333897862 352.2946996192865 1039.2030980056184 354.36975755293616Q1039.1209174933945 356.4448154865858 1038.8332857006114 358.7253247007949L1038.8332857006114 358.7253247007949Q1038.5251087797724 361.31401083584296 1037.92930006615 363.71779081838764Q1037.354036480584 366.1215708009323 1036.6144118705702 367.37482361234447L1036.6144118705702 367.37482361234447L1019.8906776330372 396.38454442732797Q1009.6181136050685 414.1355350676578 998.7291957354219 421.49069091168343Q987.8608229938309 428.8458467557089 977.5060784536386 428.8458467557089L977.5060784536386 428.8458467557089Q975.5953815444363 428.8458467557089 974.5064897574716 427.44877804790525Q973.4381430985629 426.03116421204555 973.4381430985629 424.3259185834027L973.4381430985629 424.3259185834027Q973.4381430985629 422.5590375705921 974.5886702696954 421.03869809445274Q975.7391974408279 419.51835861831347 978.2457030636523 419.51835861831347ZM1038.5251087797724 428.8458467557089L1038.5251087797724 428.8458467557089Q1034.1695416319135 428.8458467557089 1031.3548590882501 425.1477237056402Q1028.5401765445868 421.4496006555715 1027.4307396295662 415.7996904401887Q1026.3213027145457 410.12923509675005 1026.9171114281678 404.2122382166401L1026.9171114281678 404.2122382166401L1032.382115491047 352.5206960279018Q1032.6902924118863 349.9320098928537 1034.354447784417 348.63766682532963Q1036.018603156948 347.3433237578056 1037.7854841697585 347.3433237578056L1037.7854841697585 347.3433237578056Q1039.7783615911844 347.3433237578056 1040.8261631220373 348.63766682532963Q1041.8534195248342 349.9320098928537 1041.4836072198273 353.03432422930024L1041.4836072198273 353.03432422930024L1036.2445995655632 403.92460642385697Q1036.018603156948 405.9174838452829 1035.8336970044445 408.506169980331Q1035.6487908519412 411.0948561153791 1035.8336970044445 413.58081661014756Q1036.018603156948 416.04623197686 1037.0869498158568 417.66929709327906Q1038.1552964747655 419.31290733775404 1040.4563508170304 419.31290733775404L1040.4563508170304 419.31290733775404Q1045.1200948857281 419.31290733775404 1051.1809076622299 411.60848431677755Q1057.2417204387311 403.92460642385697 1064.0010675691346 389.0910239674702Q1070.780959827594 374.25744151108347 1077.4992167018854 352.89050833290867L1077.4992167018854 352.89050833290867Q1078.2388413118993 350.5894539906437 1079.3482782269198 348.96638887422466Q1080.4577151419403 347.3433237578056 1082.9847658928206 347.3433237578056L1082.9847658928206 347.3433237578056Q1084.8954628020228 347.3433237578056 1085.7994484364842 348.59657656921775Q1086.6828889428893 349.84982938062996 1086.3130766378827 353.116504741524L1086.3130766378827 353.116504741524L1081.4233361605693 403.9862418080248Q1081.1973397519541 405.9996643575067 1081.0124335994506 408.58835049255475Q1080.8275274469472 411.17703662760283 1081.0946141116744 413.6013617382035Q1081.3617007764017 416.04623197686 1082.4300474353104 417.6487519652231Q1083.498394094219 419.2307268255303 1085.7994484364842 419.2307268255303L1085.7994484364842 419.2307268255303Q1088.9017627729309 419.2307268255303 1093.1546042805098 415.49151351934967Q1097.4074457880888 411.7523002131691 1102.25609600929 404.10951257636043Q1107.0842011024351 396.4461798114958 1112.0561220919722 384.83818245989124Q1117.007497953453 373.2301851082866 1121.4452456135355 357.4720718893827L1121.4452456135355 357.4720718893827Q1122.6984984249475 353.3219560220834 1124.4037440535903 350.3429124539725Q1126.1089896822332 347.3433237578056 1129.3551199150713 347.3433237578056L1129.3551199150713 347.3433237578056Q1131.1220009278818 347.3433237578056 1131.758899897616 348.3294899044906Q1132.3957988673499 349.3362011792315 1132.3136183551262 350.9181760395387Q1132.2314378429026 352.5206960279018 1131.8616255378956 354.2259416565446L1131.8616255378956 354.2259416565446Q1131.430177848721 356.07500318157895 1130.9370947753785 357.7597036821658Q1130.4645568300919 359.4649493108086 1130.1769250373088 360.2867544330461L1130.1769250373088 360.2867544330461Q1124.0955671327513 380.2566189034172 1117.8909384598583 393.5287716275527Q1111.6863097869652 406.8009243516882 1105.6460421385195 414.52589250072066Q1099.6263196181299 422.271405777809 1094.0791350430268 425.5175360106471Q1088.5319504679237 428.76366624348526 1083.7243905028345 428.76366624348526L1083.7243905028345 428.76366624348526Q1079.3482782269198 428.76366624348526 1076.7390469638158 425.47644575453523Q1074.1092705726558 422.18922526558526 1073.2874654504183 416.6009504343703Q1072.4862054562368 411.0126756031554 1073.4312813468098 404.2122382166401L1073.4312813468098 404.2122382166401L1077.2115849091024 378.09938045754376Q1069.3633459917344 397.5556167265164 1062.8916306541141 408.60889562061067Q1056.4199153164936 419.6827196427609 1050.5029184363839 424.26428319923497Q1044.585921556274 428.8458467557089 1038.5251087797724 428.8458467557089ZM1130.0125640128613 347.4049591419734L1130.0125640128613 347.4049591419734Q1131.8616255378956 347.63095555058874 1134.1215896240487 348.26785452032277Q1136.3815537102018 348.8842083620009 1138.8880593330261 349.4389268195112Q1141.4151100839067 349.9936452770215 1144.0037962189544 349.9936452770215L1144.0037962189544 349.9936452770215Q1145.8528577439888 349.9936452770215 1147.6608290129116 349.6238329720146Q1149.4688002818339 349.25402066700775 1151.2562264227004 348.30894477643466L1151.2562264227004 348.30894477643466Q1152.2013023132736 347.856951959204 1152.7971110268957 347.9391324714278L1152.7971110268957 347.9391324714278Q1154.1325443505316 348.0007678555956 1154.5434469116503 349.5621975878468Q1154.954349472769 351.1030821920421 1154.276360246923 352.80832782068495L1154.276360246923 352.80832782068495Q1153.98872845414 353.5479524306987 1153.4751002527419 354.2464867846005Q1152.9409269232872 354.96556626655837 1152.1396669291057 355.4791944679568L1152.1396669291057 355.4791944679568Q1148.9551720804354 357.38989137715896 1145.9144931281567 358.1295159871727Q1142.894359303934 358.8691405971864 1140.0796767602706 358.8691405971864L1140.0796767602706 358.8691405971864Q1136.4637342224255 358.8691405971864 1133.381965014035 358.0678806030049Q1130.3207409337003 357.2460754807674 1128.2456830000506 356.5886313829774L1128.2456830000506 356.5886313829774Q1126.4788019872399 355.99282266935523 1125.9446286577856 354.43139293710396Q1125.4310004563872 352.89050833290867 1125.800812761394 351.26744321648965L1125.800812761394 351.26744321648965Q1126.2528055786247 349.5621975878468 1127.4033327497573 348.37058016060246Q1128.5333147928336 347.199507861414 1130.0125640128613 347.4049591419734Z " fill="#f6b042" transform="matrix(0.7577735616208412,0,0,0.7577735616208412,0,31.86499152638845)"/></g></svg>